<svg width="0" height="0" class="hidden">
  <symbol fill="none" xmlns="http://www.w3.org/2000/svg" viewBox="0 0 24 24" id="experience">
    <path fill-rule="evenodd" clip-rule="evenodd" d="M9 4.5L8.25 5.25V7.5H4.5L3.75 8.25V18.75L4.5 19.5H19.5L20.25 18.75V8.25L19.5 7.5H15.75V5.25L15 4.5H9ZM14.25 7.5V6H9.75V7.5H14.25ZM9.75 9H14.25V18H9.75V9ZM8.25 9H5.25V18H8.25V9ZM15.75 18V9H18.75V18H15.75Z" fill="#333"></path>
  </symbol>
  <symbol fill="none" xmlns="http://www.w3.org/2000/svg" viewBox="0 0 24 24" id="file">
    <path fill-rule="evenodd" clip-rule="evenodd" d="M16.0607 3H5.25V21H18.75V5.68934L16.0607 3ZM6.75 19.5V4.5H15.4393L17.25 6.31066V19.5H6.75ZM8.25 9.75H15.75V8.25H8.25V9.75ZM8.25 12.75H15.75V11.25H8.25V12.75ZM12 15.75H8.25V14.25H12V15.75Z" fill="#333"></path>
  </symbol>
  <symbol fill="none" xmlns="http://www.w3.org/2000/svg" viewBox="0 0 24 24" id="github">
    <path d="M9.29183 21V18.4407L9.3255 16.6219C9.36595 16.0561 9.58639 15.5228 9.94907 15.11C9.95438 15.1039 9.95972 15.0979 9.9651 15.0919C9.9791 15.0763 9.96988 15.0511 9.94907 15.0485V15.0485C7.52554 14.746 5.0005 13.7227 5.0005 9.26749C4.9847 8.17021 5.3427 7.10648 6.00437 6.27215C6.02752 6.24297 6.05103 6.21406 6.07492 6.18545V6.18545C6.10601 6.1482 6.11618 6.09772 6.10194 6.05134C6.10107 6.04853 6.10021 6.04571 6.09935 6.04289C6.0832 5.9899 6.06804 5.93666 6.05388 5.88321C5.81065 4.96474 5.86295 3.98363 6.20527 3.09818C6.20779 3.09164 6.21034 3.08511 6.2129 3.07858C6.22568 3.04599 6.25251 3.02108 6.28698 3.01493V3.01493C6.50189 2.97661 7.37036 2.92534 9.03298 4.07346C9.08473 4.10919 9.13724 4.14609 9.19053 4.18418V4.18418C9.22901 4.21168 9.27794 4.22011 9.32344 4.20716C9.32487 4.20675 9.32631 4.20634 9.32774 4.20593C9.41699 4.18056 9.50648 4.15649 9.59617 4.1337C11.1766 3.73226 12.8234 3.73226 14.4038 4.1337C14.4889 4.1553 14.5737 4.17807 14.6584 4.20199C14.6602 4.20252 14.6621 4.20304 14.6639 4.20356C14.7174 4.21872 14.7749 4.20882 14.8202 4.17653V4.17653C14.8698 4.14114 14.9187 4.10679 14.967 4.07346C16.6257 2.92776 17.4894 2.9764 17.7053 3.01469V3.01469C17.7404 3.02092 17.7678 3.04628 17.781 3.07946C17.7827 3.08373 17.7843 3.08799 17.786 3.09226C18.1341 3.97811 18.1894 4.96214 17.946 5.88321C17.9315 5.93811 17.9159 5.9928 17.8993 6.04723V6.04723C17.8843 6.09618 17.8951 6.14942 17.9278 6.18875C17.9289 6.18998 17.9299 6.19121 17.9309 6.19245C17.9528 6.21877 17.9744 6.24534 17.9956 6.27215C18.6573 7.10648 19.0153 8.17021 18.9995 9.26749C18.9995 13.747 16.4565 14.7435 14.0214 15.015V15.015C14.0073 15.0165 14.001 15.0334 14.0105 15.0439C14.0141 15.0479 14.0178 15.0519 14.0214 15.0559C14.2671 15.3296 14.4577 15.6544 14.5811 16.0103C14.7101 16.3824 14.7626 16.7797 14.7351 17.1754V21" stroke="#000" stroke-width="2" stroke-linecap="round" stroke-linejoin="round"></path>
    <path d="M4 17C4.36915 17.0523 4.72159 17.1883 5.03065 17.3975C5.3397 17.6068 5.59726 17.8838 5.7838 18.2078C5.94231 18.4962 6.15601 18.7504 6.41264 18.9557C6.66927 19.161 6.96379 19.3135 7.27929 19.4043C7.59478 19.4952 7.92504 19.5226 8.25112 19.485C8.5772 19.4475 8.89268 19.3457 9.17946 19.1855" stroke="#000" stroke-width="2" stroke-linecap="round" stroke-linejoin="round"></path>
  </symbol>
  <symbol version="1.1" xmlns="http://www.w3.org/2000/svg" xmlns:xlink="http://www.w3.org/1999/xlink" viewBox="0 0 24 24" id="telegram">
    <title>telegram_line</title>
    <g id="页面-1" stroke="none" stroke-width="1" fill="none" fill-rule="evenodd">
      <g id="Brand" transform="translate(-672.000000, -0.000000)">
        <g id="telegram_line" transform="translate(672.000000, 0.000000)">
          <path d="M24,0 L24,24 L0,24 L0,0 L24,0 Z M12.5934901,23.257841 L12.5819402,23.2595131 L12.5108777,23.2950439 L12.4918791,23.2987469 L12.4918791,23.2987469 L12.4767152,23.2950439 L12.4056548,23.2595131 C12.3958229,23.2563662 12.3870493,23.2590235 12.3821421,23.2649074 L12.3780323,23.275831 L12.360941,23.7031097 L12.3658947,23.7234994 L12.3769048,23.7357139 L12.4804777,23.8096931 L12.4953491,23.8136134 L12.4953491,23.8136134 L12.5071152,23.8096931 L12.6106902,23.7357139 L12.6232938,23.7196733 L12.6232938,23.7196733 L12.6266527,23.7031097 L12.609561,23.275831 C12.6075724,23.2657013 12.6010112,23.2592993 12.5934901,23.257841 L12.5934901,23.257841 Z M12.8583906,23.1452862 L12.8445485,23.1473072 L12.6598443,23.2396597 L12.6498822,23.2499052 L12.6498822,23.2499052 L12.6471943,23.2611114 L12.6650943,23.6906389 L12.6699349,23.7034178 L12.6699349,23.7034178 L12.678386,23.7104931 L12.8793402,23.8032389 C12.8914285,23.8068999 12.9022333,23.8029875 12.9078286,23.7952264 L12.9118235,23.7811639 L12.8776777,23.1665331 C12.8752882,23.1545897 12.8674102,23.1470016 12.8583906,23.1452862 L12.8583906,23.1452862 Z M12.1430473,23.1473072 C12.1332178,23.1423925 12.1221763,23.1452606 12.1156365,23.1525954 L12.1099173,23.1665331 L12.0757714,23.7811639 C12.0751323,23.7926639 12.0828099,23.8018602 12.0926481,23.8045676 L12.108256,23.8032389 L12.3092106,23.7104931 L12.3186497,23.7024347 L12.3186497,23.7024347 L12.3225043,23.6906389 L12.340401,23.2611114 L12.337245,23.2485176 L12.337245,23.2485176 L12.3277531,23.2396597 L12.1430473,23.1473072 Z" id="MingCute" fill-rule="nonzero"></path>
          <path d="M21.8394,6.05639 C22.0315,4.8917 20.8652,3.97177 19.7773,4.42984 L2.67703,11.63 C1.48461,12.132 1.42351,13.8558 2.67788,14.3758 C3.60596,14.7605 5.02633,15.3246 6.45085,15.7943 C7.61932,16.1795 8.8931,16.5371 9.91353,16.6383 C10.1929,16.9725 10.5445,17.2935 10.9017,17.5872 C11.4487,18.0371 12.1074,18.5012 12.7873,18.9455 C14.1489,19.8352 15.6597,20.6865 16.678,21.2396 C17.8949,21.9006 19.3517,21.1395 19.5705,19.8131 L21.8394,6.05639 Z M4.59485,12.9925 L19.7186,6.62459 L17.6009,19.4649 C16.6024,18.9219 15.163,18.1087 13.8813,17.2713 C13.2329,16.8475 12.6407,16.4279 12.172,16.0425 C12.0051,15.9052 11.8638,15.7802 11.7461,15.6683 L15.7072,11.7071 C16.0977,11.3166 16.0977,10.6834 15.7072,10.2929 C15.3167,9.90237 14.6835,9.90237 14.293,10.2929 L9.95476,14.6311 C9.22132,14.5373 8.19888,14.2647 7.07709,13.8949 C6.21377,13.6102 5.34574,13.2869 4.59485,12.9925 Z" id="形状" fill="#333"></path>
        </g>
      </g>
    </g>
  </symbol>
  <symbol fill="none" xmlns="http://www.w3.org/2000/svg" viewBox="0 0 24 24" id="about">
    <path fill-rule="evenodd" clip-rule="evenodd" d="M16.0603 18.307C14.89 19.0619 13.4962 19.5 12 19.5C10.5038 19.5 9.10996 19.0619 7.93972 18.307C8.66519 16.7938 10.2115 15.75 12 15.75C13.7886 15.75 15.3349 16.794 16.0603 18.307ZM17.2545 17.3516C16.2326 15.5027 14.2632 14.25 12 14.25C9.73663 14.25 7.76733 15.5029 6.74545 17.3516C5.3596 15.9907 4.5 14.0958 4.5 12C4.5 7.85786 7.85786 4.5 12 4.5C16.1421 4.5 19.5 7.85786 19.5 12C19.5 14.0958 18.6404 15.9908 17.2545 17.3516ZM21 12C21 16.9706 16.9706 21 12 21C7.02944 21 3 16.9706 3 12C3 7.02944 7.02944 3 12 3C16.9706 3 21 7.02944 21 12ZM12 12C13.2426 12 14.25 10.9926 14.25 9.75C14.25 8.50736 13.2426 7.5 12 7.5C10.7574 7.5 9.75 8.50736 9.75 9.75C9.75 10.9926 10.7574 12 12 12ZM12 13.5C14.0711 13.5 15.75 11.8211 15.75 9.75C15.75 7.67893 14.0711 6 12 6C9.92893 6 8.25 7.67893 8.25 9.75C8.25 11.8211 9.92893 13.5 12 13.5Z" fill="#333"></path>
  </symbol>
  <symbol fill="none" xmlns="http://www.w3.org/2000/svg" viewBox="0 0 24 24" id="contacts">
    <path fill-rule="evenodd" clip-rule="evenodd" d="M9.83824 18.4467C10.0103 18.7692 10.1826 19.0598 10.3473 19.3173C8.59745 18.9238 7.07906 17.9187 6.02838 16.5383C6.72181 16.1478 7.60995 15.743 8.67766 15.4468C8.98112 16.637 9.40924 17.6423 9.83824 18.4467ZM11.1618 17.7408C10.7891 17.0421 10.4156 16.1695 10.1465 15.1356C10.7258 15.0496 11.3442 15 12.0001 15C12.6559 15 13.2743 15.0496 13.8535 15.1355C13.5844 16.1695 13.2109 17.0421 12.8382 17.7408C12.5394 18.3011 12.2417 18.7484 12 19.0757C11.7583 18.7484 11.4606 18.3011 11.1618 17.7408ZM9.75 12C9.75 12.5841 9.7893 13.1385 9.8586 13.6619C10.5269 13.5594 11.2414 13.5 12.0001 13.5C12.7587 13.5 13.4732 13.5593 14.1414 13.6619C14.2107 13.1384 14.25 12.5841 14.25 12C14.25 11.4159 14.2107 10.8616 14.1414 10.3381C13.4732 10.4406 12.7587 10.5 12.0001 10.5C11.2414 10.5 10.5269 10.4406 9.8586 10.3381C9.7893 10.8615 9.75 11.4159 9.75 12ZM8.38688 10.0288C8.29977 10.6478 8.25 11.3054 8.25 12C8.25 12.6946 8.29977 13.3522 8.38688 13.9712C7.11338 14.3131 6.05882 14.7952 5.24324 15.2591C4.76698 14.2736 4.5 13.168 4.5 12C4.5 10.832 4.76698 9.72644 5.24323 8.74088C6.05872 9.20472 7.1133 9.68686 8.38688 10.0288ZM10.1465 8.86445C10.7258 8.95042 11.3442 9 12.0001 9C12.6559 9 13.2743 8.95043 13.8535 8.86447C13.5844 7.83055 13.2109 6.95793 12.8382 6.2592C12.5394 5.69894 12.2417 5.25156 12 4.92432C11.7583 5.25156 11.4606 5.69894 11.1618 6.25918C10.7891 6.95791 10.4156 7.83053 10.1465 8.86445ZM15.6131 10.0289C15.7002 10.6479 15.75 11.3055 15.75 12C15.75 12.6946 15.7002 13.3521 15.6131 13.9711C16.8866 14.3131 17.9412 14.7952 18.7568 15.2591C19.233 14.2735 19.5 13.1679 19.5 12C19.5 10.8321 19.233 9.72647 18.7568 8.74093C17.9413 9.20477 16.8867 9.6869 15.6131 10.0289ZM17.9716 7.46178C17.2781 7.85231 16.39 8.25705 15.3224 8.55328C15.0189 7.36304 14.5908 6.35769 14.1618 5.55332C13.9897 5.23077 13.8174 4.94025 13.6527 4.6827C15.4026 5.07623 16.921 6.08136 17.9716 7.46178ZM8.67765 8.55325C7.61001 8.25701 6.7219 7.85227 6.02839 7.46173C7.07906 6.08134 8.59745 5.07623 10.3472 4.6827C10.1826 4.94025 10.0103 5.23076 9.83823 5.5533C9.40924 6.35767 8.98112 7.36301 8.67765 8.55325ZM15.3224 15.4467C15.0189 16.637 14.5908 17.6423 14.1618 18.4467C13.9897 18.7692 13.8174 19.0598 13.6527 19.3173C15.4026 18.9238 16.921 17.9186 17.9717 16.5382C17.2782 16.1477 16.3901 15.743 15.3224 15.4467ZM12 21C16.9706 21 21 16.9706 21 12C21 7.02944 16.9706 3 12 3C7.02944 3 3 7.02944 3 12C3 16.9706 7.02944 21 12 21Z" fill="#333"></path>
  </symbol>
  <symbol fill="none" xmlns="http://www.w3.org/2000/svg" viewBox="0 0 24 24" id="education">
    <path fill-rule="evenodd" clip-rule="evenodd" d="M16.5 11.5285L11.9999 13.574L7.49997 11.5285V14.5056L12 16.4341L16.5 14.5056V11.5285ZM18 10.8466L22.0623 9.00011L11.9999 4.42627L2.99988 8.51718V15.7501L4.49988 15.7501V10.1649L5.99997 10.8467V15.4947L12 18.0661L18 15.4947V10.8466ZM5.56233 9.00011L11.9999 6.07396L18.4374 9.00011L11.9999 11.9263L5.56233 9.00011ZM2.99997 18.0001V16.5001H4.49997V18.0001H2.99997Z" fill="#333"></path>
  </symbol>
  <symbol fill="none" xmlns="http://www.w3.org/2000/svg" viewBox="0 0 24 24" id="email">
    <path fill-rule="evenodd" clip-rule="evenodd" d="M3.75 5.25L3 6V18L3.75 18.75H20.25L21 18V6L20.25 5.25H3.75ZM4.5 7.6955V17.25H19.5V7.69525L11.9999 14.5136L4.5 7.6955ZM18.3099 6.75H5.68986L11.9999 12.4864L18.3099 6.75Z" fill="#333"></path>
  </symbol>
</svg>